<svg width="24" height="25" viewBox="0 0 24 25" fill="none" xmlns="http://www.w3.org/2000/svg">
<path d="M22 10.3333H2M11 14.3333H6M2 8.53334L2 16.1333C2 17.2534 2 17.8135 2.21799 18.2413C2.40973 18.6176 2.71569 18.9236 3.09202 19.1154C3.51984 19.3333 4.07989 19.3333 5.2 19.3333L18.8 19.3333C19.9201 19.3333 20.4802 19.3333 20.908 19.1154C21.2843 18.9236 21.5903 18.6176 21.782 18.2413C22 17.8135 22 17.2534 22 16.1333V8.53334C22 7.41324 22 6.85319 21.782 6.42536C21.5903 6.04904 21.2843 5.74308 20.908 5.55133C20.4802 5.33334 19.9201 5.33334 18.8 5.33334L5.2 5.33334C4.0799 5.33334 3.51984 5.33334 3.09202 5.55133C2.7157 5.74308 2.40973 6.04904 2.21799 6.42536C2 6.85319 2 7.41324 2 8.53334Z" stroke="#EAAA08" stroke-width="2" stroke-linecap="round" stroke-linejoin="round"/>
</svg>
